HIERARCHY
ROOT root
{
	OFFSET	0	13.1	24.9
	CHANNELS 6  Xposition Yposition Zposition Xrotation Yrotation Zrotation
	JOINT spine_1
	{
		OFFSET	0	9.99999	0
		CHANNELS 3  Xrotation Yrotation Zrotation
		JOINT spine_2
		{
			OFFSET	0	112	-10
			CHANNELS 3  Xrotation Yrotation Zrotation
			JOINT spine_3
			{
				OFFSET	0	206.5	19.3
				CHANNELS 3  Xrotation Yrotation Zrotation
				JOINT spine_4
				{
					OFFSET	0	110.4	14.6
					CHANNELS 3  Xrotation Yrotation Zrotation
					JOINT neck_1
					{
						OFFSET	0	71.8	-50.3
						CHANNELS 3  Xrotation Yrotation Zrotation
						JOINT neck_2
						{
							OFFSET	0	86.2	-25.8
							CHANNELS 3  Xrotation Yrotation Zrotation
							JOINT head_ee
							{
								OFFSET	0	179.8	-8.7
								CHANNELS 3  Xrotation Yrotation Zrotation
								End Site
								{
									OFFSET	1	0	0
								}
							}
						}
					}
					JOINT left_clavicle
					{
						OFFSET	-43.2	22.4	-70.8
						CHANNELS 3  Xrotation Yrotation Zrotation
						JOINT left_shoulder
						{
							OFFSET	-93.9	-5.79999	48.7
							CHANNELS 3  Xrotation Yrotation Zrotation
							JOINT left_elbow
							{
								OFFSET	-291.4	-30.8	15.2
								CHANNELS 3  Xrotation Yrotation Zrotation
								JOINT left_lowarm_twist
								{
									OFFSET	-110.7	-3.89999	13.6
									CHANNELS 3  Xrotation Yrotation Zrotation
									JOINT left_hand
									{
										OFFSET	-110.7	-3.89999	13.6
										CHANNELS 3  Xrotation Yrotation Zrotation
										JOINT left_ee
										{
											OFFSET	-80.8	-5.10001	12.1
											CHANNELS 3  Xrotation Yrotation Zrotation
											End Site
											{
												OFFSET	1	0	0
											}
										}
									}
								}
							}
						}
					}
					JOINT right_clavicle
					{
						OFFSET	43.2	22.4	-70.8
						CHANNELS 3  Xrotation Yrotation Zrotation
						JOINT right_shoulder
						{
							OFFSET	93.9	-5.79999	48.7
							CHANNELS 3  Xrotation Yrotation Zrotation
							JOINT right_elbow
							{
								OFFSET	291.4	-30.8	15.2
								CHANNELS 3  Xrotation Yrotation Zrotation
								JOINT right_lowarm_twist
								{
									OFFSET	110.7	-3.89999	13.6
									CHANNELS 3  Xrotation Yrotation Zrotation
									JOINT right_hand
									{
										OFFSET	110.7	-3.89999	13.6
										CHANNELS 3  Xrotation Yrotation Zrotation
										JOINT right_ee
										{
											OFFSET	80.8	-5.10001	12.1
											CHANNELS 3  Xrotation Yrotation Zrotation
											End Site
											{
												OFFSET	1	0	0
											}
										}
									}
								}
							}
						}
					}
				}
			}
		}
	}
	JOINT left_hip
	{
		OFFSET	-82.8	-127.5	0.300001
		CHANNELS 3  Xrotation Yrotation Zrotation
		JOINT left_knee
		{
			OFFSET	-28.2	-396.7	2.2
			CHANNELS 3  Xrotation Yrotation Zrotation
			JOINT left_ankle
			{
				OFFSET	-11.7	-411.3	35.4
				CHANNELS 3  Xrotation Yrotation Zrotation
				JOINT left_toes
				{
					OFFSET	0	-60	-88.6
					CHANNELS 3  Xrotation Yrotation Zrotation
					JOINT left_foot_ee
					{
						OFFSET	-22.5	-16.5	-42.2
						CHANNELS 3  Xrotation Yrotation Zrotation
						End Site
						{
							OFFSET	1	0	0
						}
					}
				}
			}
		}
	}
	JOINT right_hip
	{
		OFFSET	82.8	-127.5	0.300001
		CHANNELS 3  Xrotation Yrotation Zrotation
		JOINT right_knee
		{
			OFFSET	28.2	-396.7	2.2
			CHANNELS 3  Xrotation Yrotation Zrotation
			JOINT right_ankle
			{
				OFFSET	11.7	-411.3	35.4
				CHANNELS 3  Xrotation Yrotation Zrotation
				JOINT right_toes
				{
					OFFSET	0	-60	-88.6
					CHANNELS 3  Xrotation Yrotation Zrotation
					JOINT right_foot_ee
					{
						OFFSET	22.5	-16.5	-42.2
						CHANNELS 3  Xrotation Yrotation Zrotation
						End Site
						{
							OFFSET	1	0	0
						}
					}
				}
			}
		}
	}
}
MOTION
Frames: 10
Frame Time: 0.02
391.555 721.904 -1204.45 -169.773545066 -25.9575288641 -178.607234048 4.65901 0.194182 0.511187 4.65914 0.161261 0.522507 4.66051 0.091947 0.539039 4.66015 0.175923 0.517754 -20.3957 8.27535 0.376788 -20.7721 15.7664 3.92802 -0.0 0.0 -0.0 1.43975 20.256 4.46397 -31.5872 -17.0535 70.0637 0.496306 -13.8127 0.060116 -8.48762 -0.3752 1.01717 0.749648 8.50373 8.40569 -0.0 0.0 -0.0 11.7616 15.2166 -23.646 -16.1779 20.1928 -54.4813 1.41029 34.9368 -0.443829 -2.33619 0.0881502 -0.285273 -1.87532 -0.148298 12.5583 0.0 0.0 0.0 19.616 -8.07476 3.66073 -12.9158 0.312768 1.95325 24.6516 22.771 -3.42359 -4.53023 0.0 0.0 -0.0 0.0 -0.0 6.89605 7.99426 8.40098 -1.01421 -0.0404304 -0.150391 15.2291 -28.0014 2.26555 33.055 -0.0 -0.0 0.0 0.0 0.0 
399.230301184 719.495 -1200.33572877 -169.630995557 -25.0451482048 -178.44506333 4.83833 0.193343 0.388914 4.8384 0.168204 0.400428 4.83951 0.116014 0.41854 4.83931 0.180658 0.394966 -19.2482 7.44674 -0.382913 -19.539 14.5429 2.70144 -0.0 0.0 -0.0 1.29793 19.1454 4.1721 -31.0593 -15.9083 71.1269 0.487958 -13.5891 0.0581385 -7.39236 -0.318353 0.889144 0.516215 7.66046 6.55065 -0.0 0.0 -0.0 11.8925 14.969 -23.9532 -16.0659 19.4741 -54.7142 1.42387 35.1949 -0.45163 -2.42587 0.0917654 -0.296151 -1.80911 2.75988 13.445 0.0 0.0 0.0 19.4953 -7.65769 3.38261 -13.7338 0.31765 2.07866 26.518 23.8183 -3.67011 -3.51074 0.0 0.0 -0.0 0.0 -0.0 6.22151 4.80755 7.27801 1.25929 0.0539007 0.18572 16.5159 -28.1294 2.44761 32.407 -0.0 -0.0 0.0 0.0 0.0 
410.16271551 717.706 -1191.11729388 -169.851367279 -24.6841844237 -177.940923381 5.13685 0.131729 0.383414 5.13693 0.107065 0.391019 5.13759 0.0586495 0.401147 5.13738 0.121267 0.38685 -20.9004 8.36313 1.33532 -21.2705 15.4739 4.92498 -0.0 0.0 -0.0 1.14353 18.786 3.91243 -31.013 -15.5267 71.1711 0.447831 -12.5083 0.0490784 -7.63585 -0.330778 0.917697 0.599349 7.43654 7.00603 -0.0 0.0 -0.0 11.615 13.3217 -23.3705 -16.9357 19.5711 -55.3371 1.47003 36.0601 -0.478517 -1.95062 0.0727998 -0.238438 -1.6435 0.956368 11.4823 0.0 0.0 0.0 18.2733 -1.01277 2.29278 -13.6949 0.317459 2.07269 26.452 23.452 -3.65498 -3.25462 0.0 0.0 -0.0 0.0 -0.0 7.16724 2.25645 6.66614 -2.75623 -0.103631 -0.410257 18.6889 -28.528 2.75428 33.4103 -0.0 -0.0 0.0 0.0 0.0 
420.234994025 715.018 -1177.51514825 -169.98263392 -23.9721092617 -176.969772392 5.24489 0.202745 0.363397 5.24495 0.17921 0.375562 5.24607 0.132889 0.394339 5.2459 0.193499 0.368403 -18.9741 11.1229 4.06657 -19.4275 19.2953 8.32844 -0.0 0.0 -0.0 1.42074 17.7543 4.25215 -33.2619 -14.7383 69.1506 0.527105 -14.6341 0.0676836 -6.99648 -0.298411 0.842609 0.633249 6.66091 6.92244 -0.0 0.0 -0.0 11.8177 11.253 -23.8614 -18.3484 18.9958 -55.9018 1.49927 36.5986 -0.49584 -2.64666 0.100739 -0.322911 -1.1285 5.36034 9.9293 0.0 0.0 0.0 19.9023 -0.933556 1.09956 -20.5243 0.289038 3.11953 30.7773 25.18 -4.2011 -2.65485 0.0 0.0 -0.0 0.0 -0.0 7.6666 -0.654289 5.91052 -6.31339 -0.207981 -0.946109 19.7555 -27.0383 2.87111 32.0949 -0.0 -0.0 0.0 0.0 0.0 
419.875946975 715.018 -1177.13787342 -170.040105461 -23.2251636344 -177.113330689 5.24489 0.202745 0.363397 5.24495 0.17921 0.375562 5.24607 0.132889 0.394339 5.2459 0.193499 0.368403 -18.9741 11.1229 4.06657 -19.4275 19.2953 8.32844 -0.0 0.0 -0.0 1.42074 17.7543 4.25215 -33.2619 -14.7383 69.1506 0.527105 -14.6341 0.0676836 -6.99648 -0.298411 0.842609 0.633249 6.66091 6.92244 -0.0 0.0 -0.0 11.8177 11.253 -23.8614 -18.3484 18.9958 -55.9018 1.49927 36.5986 -0.49584 -2.64666 0.100739 -0.322911 -1.1285 5.36034 9.9293 0.0 0.0 0.0 19.9023 -0.933556 1.09956 -20.5243 0.289038 3.11953 30.7773 25.18 -4.2011 -2.65485 0.0 0.0 -0.0 0.0 -0.0 7.6666 -0.654289 5.91052 -6.31339 -0.207981 -0.946109 19.7555 -27.0383 2.87111 32.0949 -0.0 -0.0 0.0 0.0 0.0 
419.694375337 715.018 -1176.95083907 -170.067987715 -22.8512660996 -177.18457755 5.24489 0.202745 0.363397 5.24495 0.17921 0.375562 5.24607 0.132889 0.394339 5.2459 0.193499 0.368403 -18.9741 11.1229 4.06657 -19.4275 19.2953 8.32844 -0.0 0.0 -0.0 1.42074 17.7543 4.25215 -33.2619 -14.7383 69.1506 0.527105 -14.6341 0.0676836 -6.99648 -0.298411 0.842609 0.633249 6.66091 6.92244 -0.0 0.0 -0.0 11.8177 11.253 -23.8614 -18.3484 18.9958 -55.9018 1.49927 36.5986 -0.49584 -2.64666 0.100739 -0.322911 -1.1285 5.36034 9.9293 0.0 0.0 0.0 19.9023 -0.933556 1.09956 -20.5243 0.289038 3.11953 30.7773 25.18 -4.2011 -2.65485 0.0 0.0 -0.0 0.0 -0.0 7.6666 -0.654289 5.91052 -6.31339 -0.207981 -0.946109 19.7555 -27.0383 2.87111 32.0949 -0.0 -0.0 0.0 0.0 0.0 
419.446113725 715.018 -1176.6990708 -170.104883925 -22.3440501884 -177.280596061 5.24489 0.202745 0.363397 5.24495 0.17921 0.375562 5.24607 0.132889 0.394339 5.2459 0.193499 0.368403 -18.9741 11.1229 4.06657 -19.4275 19.2953 8.32844 -0.0 0.0 -0.0 1.42074 17.7543 4.25215 -33.2619 -14.7383 69.1506 0.527105 -14.6341 0.0676836 -6.99648 -0.298411 0.842609 0.633249 6.66091 6.92244 -0.0 0.0 -0.0 11.8177 11.253 -23.8614 -18.3484 18.9958 -55.9018 1.49927 36.5986 -0.49584 -2.64666 0.100739 -0.322911 -1.1285 5.36034 9.9293 0.0 0.0 0.0 19.9023 -0.933556 1.09956 -20.5243 0.289038 3.11953 30.7773 25.18 -4.2011 -2.65485 0.0 0.0 -0.0 0.0 -0.0 7.6666 -0.654289 5.91052 -6.31339 -0.207981 -0.946109 19.7555 -27.0383 2.87111 32.0949 -0.0 -0.0 0.0 0.0 0.0 
419.453812569 715.018 -1176.70681069 -170.103760528 -22.3597112561 -177.277642036 5.24489 0.202745 0.363397 5.24495 0.17921 0.375562 5.24607 0.132889 0.394339 5.2459 0.193499 0.368403 -18.9741 11.1229 4.06657 -19.4275 19.2953 8.32844 -0.0 0.0 -0.0 1.42074 17.7543 4.25215 -33.2619 -14.7383 69.1506 0.527105 -14.6341 0.0676836 -6.99648 -0.298411 0.842609 0.633249 6.66091 6.92244 -0.0 0.0 -0.0 11.8177 11.253 -23.8614 -18.3484 18.9958 -55.9018 1.49927 36.5986 -0.49584 -2.64666 0.100739 -0.322911 -1.1285 5.36034 9.9293 0.0 0.0 0.0 19.9023 -0.933556 1.09956 -20.5243 0.289038 3.11953 30.7773 25.18 -4.2011 -2.65485 0.0 0.0 -0.0 0.0 -0.0 7.6666 -0.654289 5.91052 -6.31339 -0.207981 -0.946109 19.7555 -27.0383 2.87111 32.0949 -0.0 -0.0 0.0 0.0 0.0 
419.33930379 715.018 -1176.59213291 -170.120334774 -22.1272191903 -177.321426254 5.24489 0.202745 0.363397 5.24495 0.17921 0.375562 5.24607 0.132889 0.394339 5.2459 0.193499 0.368403 -18.9741 11.1229 4.06657 -19.4275 19.2953 8.32844 -0.0 0.0 -0.0 1.42074 17.7543 4.25215 -33.2619 -14.7383 69.1506 0.527105 -14.6341 0.0676836 -6.99648 -0.298411 0.842609 0.633249 6.66091 6.92244 -0.0 0.0 -0.0 11.8177 11.253 -23.8614 -18.3484 18.9958 -55.9018 1.49927 36.5986 -0.49584 -2.64666 0.100739 -0.322911 -1.1285 5.36034 9.9293 0.0 0.0 0.0 19.9023 -0.933556 1.09956 -20.5243 0.289038 3.11953 30.7773 25.18 -4.2011 -2.65485 0.0 0.0 -0.0 0.0 -0.0 7.6666 -0.654289 5.91052 -6.31339 -0.207981 -0.946109 19.7555 -27.0383 2.87111 32.0949 -0.0 -0.0 0.0 0.0 0.0 
438.002226449 712.061 -1162.30364884 -170.407364646 -19.2154556253 -176.667752019 5.56407 0.141647 0.0426429 5.56406 0.138646 0.0515699 5.56419 0.131837 0.067091 5.56421 0.140778 0.0454278 -17.4607 15.6954 5.26646 -18.2962 27.2969 11.0586 -0.0 0.0 -0.0 2.0164 16.697 5.10134 -35.3024 -13.8636 67.3032 0.613789 -16.9122 0.0912515 -6.00467 -0.249869 0.725438 0.756449 5.6286 7.32634 -0.0 0.0 -0.0 11.5795 8.92105 -23.3257 -20.1546 18.3373 -55.7939 1.55182 37.5479 -0.527525 -3.43889 0.133788 -0.418641 -0.340982 11.3003 7.11943 0.0 0.0 0.0 21.7607 0.081208 -0.0868213 -30.2913 0.0327991 4.59473 33.1055 26.6947 -4.50533 -3.12568 0.0 0.0 -0.0 0.0 -0.0 7.97377 -8.60492 6.47189 -7.44805 -0.234241 -1.11825 22.5972 -26.1101 3.22659 30.7297 -0.0 -0.0 0.0 0.0 0.0 
